<svg xmlns="http://www.w3.org/2000/svg" width="1200" height="675" viewBox="0 0 1200 675" role="img" aria-label="Árbol Linux"><rect width="1200" height="675" rx="24" fill="#F5F8FC"/><style>.t{font-family:Arial,Helvetica,sans-serif;fill:#263238}.h{font-size:34px;font-weight:700;fill:#17365D}.s{font-size:24px;font-weight:700}.b{font-size:20px}.sm{font-size:17px;fill:#6B7785}.line{stroke:#17365D;stroke-width:5;fill:none}.dash{stroke:#6B7785;stroke-width:4;stroke-dasharray:10 8;fill:none}</style><text x="60" y="58" class="t h" text-anchor="start">Linux: un único árbol que empieza en /</text><rect x="520" y="105" width="160" height="70" rx="18" fill="#E8EEF7" stroke="#2F5597" stroke-width="3"/><text x="600.0" y="145" class="t s" text-anchor="middle">/</text><text x="600.0" y="175" class="t sm" text-anchor="middle">raíz</text><rect x="90" y="270" width="170" height="85" rx="18" fill="#FFFFFF" stroke="#4E9F6E" stroke-width="3"/><text x="175.0" y="310" class="t s" text-anchor="middle">/etc</text><text x="175.0" y="340" class="t sm" text-anchor="middle">configuración</text><path d="M600,175 L175,270" class="dash" stroke="#6B7785"/><polygon points="175,270 160,261 160,279" fill="#6B7785"/><rect x="300" y="270" width="170" height="85" rx="18" fill="#FFFFFF" stroke="#4E9F6E" stroke-width="3"/><text x="385.0" y="310" class="t s" text-anchor="middle">/home</text><text x="385.0" y="340" class="t sm" text-anchor="middle">usuarios</text><path d="M600,175 L385,270" class="dash" stroke="#6B7785"/><polygon points="385,270 370,261 370,279" fill="#6B7785"/><rect x="510" y="270" width="170" height="85" rx="18" fill="#FFFFFF" stroke="#4E9F6E" stroke-width="3"/><text x="595.0" y="310" class="t s" text-anchor="middle">/var</text><text x="595.0" y="340" class="t sm" text-anchor="middle">datos variables</text><path d="M600,175 L595,270" class="dash" stroke="#6B7785"/><polygon points="595,270 580,261 580,279" fill="#6B7785"/><rect x="720" y="270" width="170" height="85" rx="18" fill="#FFFFFF" stroke="#4E9F6E" stroke-width="3"/><text x="805.0" y="310" class="t s" text-anchor="middle">/srv</text><text x="805.0" y="340" class="t sm" text-anchor="middle">servicios</text><path d="M600,175 L805,270" class="dash" stroke="#6B7785"/><polygon points="805,270 790,261 790,279" fill="#6B7785"/><rect x="930" y="270" width="170" height="85" rx="18" fill="#FFFFFF" stroke="#4E9F6E" stroke-width="3"/><text x="1015.0" y="310" class="t s" text-anchor="middle">/tmp</text><text x="1015.0" y="340" class="t sm" text-anchor="middle">temporales</text><path d="M600,175 L1015,270" class="dash" stroke="#6B7785"/><polygon points="1015,270 1000,261 1000,279" fill="#6B7785"/><rect x="300" y="430" width="170" height="80" rx="18" fill="#FFFFFF" stroke="#E58A2B" stroke-width="3"/><text x="385.0" y="470" class="t s" text-anchor="middle">francano</text><text x="385.0" y="500" class="t sm" text-anchor="middle">/home/francano</text><path d="M385,355 L385,430" class="line" stroke="#E58A2B"/><polygon points="385,430 370,421 370,439" fill="#E58A2B"/><text x="600" y="570" class="t b" text-anchor="middle">Aprende para qué sirve cada zona cuando la necesites.</text></svg>