<svg xmlns="http://www.w3.org/2000/svg" width="1200" height="675" viewBox="0 0 1200 675" role="img" aria-label="Proceso DORA">
<rect width="1200" height="675" rx="24" fill="#F6F8FC"/>
<style>
.t{font-family:Arial,Helvetica,sans-serif;fill:#263238}
.h{font-size:34px;font-weight:700;fill:#17365D}
.s{font-size:23px;font-weight:700}
.b{font-size:19px}
.sm{font-size:16px;fill:#6B7785}
.line{stroke:#17365D;stroke-width:5;fill:none}
.dash{stroke:#6B7785;stroke-width:4;stroke-dasharray:10 8;fill:none}
</style><text x="60" y="58" class="t h" text-anchor="start">DORA · conversación inicial DHCPv4</text><rect x="90" y="105" width="260" height="90" rx="18" fill="#FFFFFF" stroke="#2F5597" stroke-width="3"/><text x="220.0" y="144" class="t s" text-anchor="middle">CLIENTE</text><text x="220.0" y="173" class="t sm" text-anchor="middle">UDP 68</text><rect x="850" y="105" width="260" height="90" rx="18" fill="#EAF6EE" stroke="#4E9F6E" stroke-width="3"/><text x="980.0" y="144" class="t s" text-anchor="middle">SERVIDOR</text><text x="980.0" y="173" class="t sm" text-anchor="middle">UDP 67</text><path d="M350,255 L850,255" class="line" stroke="#2F5597"/><polygon points="850,255 835,246 835,264" fill="#2F5597"/><text x="600" y="243" class="t s" text-anchor="middle">DISCOVER</text><text x="600" y="279" class="t sm" text-anchor="middle">busca servidores</text><path d="M850,345 L350,345" class="line" stroke="#4E9F6E"/><polygon points="350,345 335,336 335,354" fill="#4E9F6E"/><text x="600" y="333" class="t s" text-anchor="middle">OFFER</text><text x="600" y="369" class="t sm" text-anchor="middle">propone IP + opciones</text><path d="M350,435 L850,435" class="line" stroke="#2F5597"/><polygon points="850,435 835,426 835,444" fill="#2F5597"/><text x="600" y="423" class="t s" text-anchor="middle">REQUEST</text><text x="600" y="459" class="t sm" text-anchor="middle">elige y solicita</text><path d="M850,525 L350,525" class="line" stroke="#4E9F6E"/><polygon points="350,525 335,516 335,534" fill="#4E9F6E"/><text x="600" y="513" class="t s" text-anchor="middle">ACK</text><text x="600" y="549" class="t sm" text-anchor="middle">confirma concesión</text><text x="600" y="630" class="t sm" text-anchor="middle">DORA es una ayuda mental: también existen NAK, RELEASE, DECLINE, INFORM y renovaciones.</text></svg>